<?xml version="1.0" encoding="UTF-8"?>
<svg id="Layer_1" data-name="Layer 1" xmlns="http://www.w3.org/2000/svg" viewBox="0 0 323.36 30.5">
  <defs>
    <style>
      .cls-1 {
        fill: #e2b127;
      }

      .cls-2 {
        fill: #808660;
      }
    </style>
  </defs>
  <path class="cls-1" d="m11.88,30.5c-2.19,0-4.19-.44-6-1.33-1.81-.88-3.24-2.21-4.3-3.98-1.05-1.77-1.58-4-1.58-6.7V.51h6.32v18.03c0,1.32.22,2.44.65,3.37.44.93,1.08,1.62,1.94,2.09.86.46,1.89.69,3.1.69s2.28-.23,3.14-.69c.86-.46,1.51-1.16,1.96-2.09.45-.93.67-2.05.67-3.37V.51h6.32v17.99c0,2.7-.55,4.93-1.66,6.7-1.11,1.77-2.58,3.1-4.42,3.98-1.84.88-3.88,1.33-6.13,1.33Z"/>
  <path class="cls-1" d="m39.8,30.5c-2.11,0-4.01-.36-5.71-1.07-1.7-.72-3.04-1.78-4.02-3.18-.98-1.4-1.52-3.13-1.6-5.18h6.74c.03.82.23,1.53.61,2.15s.91,1.1,1.58,1.45c.67.35,1.46.53,2.36.53.79,0,1.47-.12,2.04-.36.58-.24,1.03-.59,1.37-1.05.34-.46.51-1.05.51-1.75s-.19-1.35-.57-1.87c-.38-.52-.91-.97-1.6-1.35-.69-.38-1.48-.73-2.38-1.05-.9-.32-1.84-.64-2.82-.95-2.33-.76-4.12-1.78-5.37-3.07-1.25-1.29-1.87-3.02-1.87-5.18,0-1.8.44-3.33,1.33-4.61.88-1.28,2.1-2.25,3.64-2.93,1.54-.67,3.29-1.01,5.22-1.01,2.05,0,3.84.34,5.37,1.03,1.53.69,2.75,1.69,3.66,2.99.91,1.31,1.4,2.86,1.45,4.65h-6.82c0-.62-.17-1.18-.51-1.68s-.78-.91-1.33-1.22c-.55-.31-1.17-.46-1.87-.46-.65-.03-1.24.06-1.77.27-.53.21-.96.53-1.26.97-.31.44-.46.98-.46,1.62s.16,1.16.48,1.62c.32.46.77.86,1.35,1.18.58.32,1.25.63,2.02.91.77.28,1.61.56,2.51.84,1.52.5,2.9,1.1,4.15,1.79,1.25.69,2.25,1.59,3.01,2.7.76,1.11,1.14,2.58,1.14,4.4,0,1.6-.41,3.07-1.22,4.42-.81,1.35-2.01,2.43-3.58,3.24-1.57.81-3.5,1.22-5.77,1.22Z"/>
  <path class="cls-1" d="m53.16,29.99L63.9.51h7.2l10.74,29.48h-6.66l-7.71-22.37-7.71,22.37h-6.61Zm4.68-6.44l1.64-4.89h15.5l1.6,4.89h-18.74Z"/>
  <path class="cls-1" d="m85.51,29.99V.51h7.58l8.59,17.73L110.19.51h7.54v29.48h-6.32V11.12l-7.29,14.74h-5.01l-7.29-14.74v18.87h-6.32Z"/>
  <path class="cls-1" d="m121.35,29.99L132.09.51h7.2l10.74,29.48h-6.66l-7.71-22.37-7.71,22.37h-6.61Zm4.68-6.44l1.64-4.89h15.5l1.6,4.89h-18.74Z"/>
  <path class="cls-1" d="m161.24,29.99L171.98.51h7.2l10.74,29.48h-6.66l-7.71-22.37-7.71,22.37h-6.61Zm4.68-6.44l1.64-4.89h15.5l1.6,4.89h-18.74Z"/>
  <path class="cls-1" d="m193.59,29.99V.51h6.32v29.48h-6.32Zm5.52-12.51v-5.1h13.98v5.1h-13.98Zm13.02,12.51V.51h6.32v29.48h-6.32Z"/>
  <path class="cls-1" d="m224.08,29.99V.51h7.58l8.59,17.73L248.77.51h7.54v29.48h-6.32V11.12l-7.29,14.74h-5.01l-7.29-14.74v18.87h-6.32Z"/>
  <path class="cls-1" d="m261.91,29.99V.51h19.75v5.1h-13.44v6.95h12.17v4.89h-12.17v7.46h13.44v5.1h-19.75Z"/>
  <path class="cls-1" d="m286.68,29.99V.51h10.19c3.43,0,6.25.61,8.49,1.83,2.23,1.22,3.89,2.93,4.97,5.14,1.08,2.2,1.62,4.8,1.62,7.77s-.54,5.52-1.62,7.73c-1.08,2.2-2.74,3.92-4.97,5.16-2.23,1.24-5.06,1.85-8.49,1.85h-10.19Zm6.32-5.43h3.54c2.25,0,4.03-.37,5.35-1.12,1.32-.74,2.25-1.81,2.8-3.2.55-1.39.82-3.05.82-4.99s-.27-3.64-.82-5.03c-.55-1.39-1.48-2.46-2.8-3.2-1.32-.74-3.1-1.12-5.35-1.12h-3.54v18.66Z"/>
  <path class="cls-2" d="m319.53,30.2c-1.15,0-2.09-.34-2.8-1.03-.72-.69-1.07-1.52-1.07-2.51s.36-1.86,1.07-2.55c.72-.69,1.65-1.03,2.8-1.03s2.04.34,2.76,1.03c.72.69,1.07,1.54,1.07,2.55s-.36,1.82-1.07,2.51c-.72.69-1.64,1.03-2.76,1.03Z"/>
</svg>