<?xml version="1.0" encoding="utf-8"?>
<!-- Generator: Adobe Illustrator 27.1.1, SVG Export Plug-In . SVG Version: 6.00 Build 0)  -->
<svg version="1.1" id="Layer_1" xmlns="http://www.w3.org/2000/svg" xmlns:xlink="http://www.w3.org/1999/xlink" x="0px" y="0px"
	 viewBox="0 0 1920 897" style="enable-background:new 0 0 1920 897;" xml:space="preserve">
<style type="text/css">
	.st0{fill:#EAB825;}
	.st1{fill:none;stroke:#808660;stroke-width:0.5;stroke-miterlimit:10;}
	.st2{clip-path:url(#SVGID_00000080898784832702735910000017417639141160317589_);}
	.st3{fill:#E2B127;}
</style>
<rect y="0" class="st0" width="1920" height="897"/>
<line class="st1" x1="-40.4" y1="131.7" x2="1977.4" y2="131.7"/>
<g>
	<defs>
		<rect id="SVGID_1_" y="0" width="1920" height="897"/>
	</defs>
	<clipPath id="SVGID_00000004543769433937359000000008734181503434634675_">
		<use xlink:href="#SVGID_1_"  style="overflow:visible;"/>
	</clipPath>
	<g style="clip-path:url(#SVGID_00000004543769433937359000000008734181503434634675_);">
		<g>
			<path class="st3" d="M1969.4,109.7c-151.2,5.1-297.4,52.5-441.6,98.3C1199.6,312.3,864.6,411,520.5,419.7
				c-186.1,4.7-372.8-17.2-552.8-64.8V-58.7h2001.7L1969.4,109.7L1969.4,109.7z"/>
			<path class="st3" d="M1969.4,107.2c-103.9,3.7-205.7,27-305.3,56c-101.1,29.5-200.9,63.2-301.7,93.7
				C1161.4,317.8,957.2,371.7,748.6,399c-209.5,27.4-421.8,24.9-629.9-13c-26.5-4.8-52.9-10.2-79.2-16.1c-12.5-2.8-25-5.8-37.5-8.8
				c-5.6-1.4-11.2-2.8-16.8-4.2c-3-0.8-6.3-2.2-9.3-2.4c3.7,0.3-7.8-2.6-5.6,0.4c-0.7-1,0-5.3,0-6.4v-15.2c0-42.3,0-84.5,0-126.8
				c0-86.7,0-173.5,0-260.2v-4.9l-2.5,2.5h1971.5c8.6,0,18.2,1.1,26.8,0c1.1-0.2,2.3,0,3.4,0l-2.5-2.5c0,56.1,0,112.3,0,168.4
				c0,3.2,5,3.2,5,0c0-56.1,0-112.3,0-168.4c0-1.3-1.2-2.5-2.5-2.5H48.9c-25.9,0-51.9-0.3-77.8,0c-1.1,0-2.3,0-3.4,0
				c-1.3,0-2.5,1.2-2.5,2.5v413.6c0,1.1,0.8,2.1,1.8,2.4c128.7,34,260.8,55,393.7,62.5c132.3,7.4,264.9,0.8,396.1-16.9
				c131.4-17.6,261.1-45.7,389.3-79.3c129.2-33.9,256.9-73.3,384.2-113.8c127.3-40.5,256-82.3,389.7-94.6
				c16.4-1.5,32.9-2.5,49.4-3.1C1972.6,112.1,1972.6,107.1,1969.4,107.2L1969.4,107.2z"/>
		</g>
		<g>
			<path class="st3" d="M-32.3,448.5c151.2,5.1,297.4,52.5,441.6,98.3c328.1,104.2,663.1,203,1007.3,211.7
				c186.1,4.7,372.8-17.2,552.8-64.8v269.8H-32.3V448.5"/>
			<path class="st3" d="M-32.3,451c134.4,4.8,264.3,42.5,391.8,82.7c127.3,40.2,254.5,80.7,383.4,115.9
				c127.9,34.9,257.3,64.9,388.4,85.1c130.7,20.1,262.9,30.2,395.2,26.1c133-4.1,265.7-21.7,395.1-52.4c16.2-3.9,32.4-7.9,48.6-12.2
				l-3.2-2.4v269.8l2.5-2.5H-2.1c-8.6,0-18.2-1.1-26.8,0c-1.1,0.2-2.3,0-3.4,0l2.5,2.5v-515c0-3.2-5-3.2-5,0v515
				c0,1.3,1.2,2.5,2.5,2.5h1920.4c25.9,0,51.9,0.3,77.8,0c1.1,0,2.3,0,3.4,0c1.3,0,2.5-1.2,2.5-2.5V693.7c0-1.6-1.6-2.8-3.2-2.4
				c-130.2,34.3-263.7,55.4-398.1,62.6c-133.7,7.1-267.8-0.1-400.3-18.5c-131.3-18.2-261-46.8-389.1-80.7
				c-128.5-34-255.5-73.5-382.2-113.7c-124.8-39.7-250.9-79.8-382-91.8c-16.4-1.5-32.9-2.5-49.4-3.1
				C-35.5,445.9-35.5,450.9-32.3,451L-32.3,451L-32.3,451z"/>
		</g>
	</g>
</g>
</svg>
